<svg viewBox="0 0 50 50" xmlns="http://www.w3.org/2000/svg" xmlns:xlink="http://www.w3.org/1999/xlink" version="1.1">
            <g transform="translate(24.75 25) scale(1.4285714285714286)" id="lockup4-icon">
                <g fill="#232323">
                    <g transform="translate(-17.325 -17.5) scale(0.35)" id="container">
                        <g fill="#232323">
                            <rect vector-effect="non-scaling-stroke" x="1" y="1" width="98" height="98" rx="10"></rect>
                        </g>
                    </g>
                    <g transform="translate(-8.799999999999999 -10) scale(0.8333333333333333)" id="icon">
                        <g fill="#FFFFFF">
                            <path d="M22.5 5h-6a.5.5 0 0 0-.5.5v6a.5.5 0 0 0 .5.5H19v4.5c0 1.93-1.57 3.5-3.5 3.5h-4.793l1.146-1.146a.5.5 0 0 0-.707-.707l-2 2a.483.483 0 0 0-.133.287.49.49 0 0 0 .025.257v.001l.004.005a.476.476 0 0 0 .105.157l2 2a.498.498 0 0 0 .707 0 .5.5 0 0 0 0-.707L10.707 21H15.5c2.481 0 4.5-2.019 4.5-4.5V12h2.5a.5.5 0 0 0 .5-.5v-6a.5.5 0 0 0-.5-.5zM7.5 0h-6a.5.5 0 0 0-.5.5v6a.5.5 0 0 0 .5.5H4v7.293l-1.146-1.146a.5.5 0 0 0-.707.707l1.999 1.999a.504.504 0 0 0 .708 0l1.999-1.999a.5.5 0 0 0-.707-.707L5 14.293V7h2.5a.5.5 0 0 0 .5-.5v-6a.5.5 0 0 0-.5-.5zM7.5 17h-6a.5.5 0 0 0-.5.5v6a.5.5 0 0 0 .5.5h6a.5.5 0 0 0 .5-.5v-6a.5.5 0 0 0-.5-.5z"></path>
                        </g>
                    </g>
                </g>
            </g>
        </svg>